<svg width="175" height="34" viewBox="0 0 175 34" fill="none" xmlns="http://www.w3.org/2000/svg">
<g filter="url(#filter0_b)">
<path d="M47.2943 32L43.8743 13.28H46.7543L48.8423 28.976L50.5343 18.068H54.2063L55.8983 28.976L57.9863 13.28H60.8663L57.4463 32H54.4943L52.3703 20.732L50.2463 32H47.2943ZM68.1324 32.252C66.4524 32.252 65.1444 31.832 64.2084 30.992C63.2964 30.128 62.8404 28.94 62.8404 27.428V17.852C62.8404 16.34 63.2964 15.164 64.2084 14.324C65.1444 13.46 66.4524 13.028 68.1324 13.028C69.8124 13.028 71.1084 13.46 72.0204 14.324C72.9564 15.164 73.4244 16.34 73.4244 17.852V27.428C73.4244 28.94 72.9564 30.128 72.0204 30.992C71.1084 31.832 69.8124 32.252 68.1324 32.252ZM68.1324 30.02C68.9004 30.02 69.5004 29.804 69.9324 29.372C70.3884 28.916 70.6164 28.268 70.6164 27.428V17.852C70.6164 17.012 70.3884 16.376 69.9324 15.944C69.5004 15.488 68.9004 15.26 68.1324 15.26C67.3644 15.26 66.7524 15.488 66.2964 15.944C65.8644 16.376 65.6484 17.012 65.6484 17.852V27.428C65.6484 28.268 65.8644 28.916 66.2964 29.372C66.7524 29.804 67.3644 30.02 68.1324 30.02ZM77.0252 13.28H79.2572L79.5812 14.612L80.4812 14.18C81.2492 13.796 81.8852 13.508 82.3892 13.316C82.9172 13.124 83.4452 13.028 83.9732 13.028V15.152C83.6612 15.152 83.2412 15.248 82.7132 15.44C82.1852 15.608 81.2492 16.016 79.9052 16.664V32H77.0252V13.28ZM87.126 32V6.8H90.186V17.816L97.638 6.8H100.77L93.426 18.032L101.85 32H98.646L91.59 20.264L90.186 22.064V32H87.126ZM104.564 32V6.8H107.732V29.624H115.112V32H104.564ZM124 32.252C121.768 32.252 120.064 31.688 118.888 30.56C117.712 29.408 117.124 27.812 117.124 25.772V13.028C117.124 10.988 117.712 9.404 118.888 8.276C120.064 7.124 121.768 6.548 124 6.548C126.256 6.548 127.972 7.124 129.148 8.276C130.324 9.404 130.912 10.988 130.912 13.028V25.772C130.912 27.812 130.324 29.408 129.148 30.56C127.972 31.688 126.256 32.252 124 32.252ZM124 29.876C125.056 29.876 125.944 29.576 126.664 28.976C127.384 28.352 127.744 27.488 127.744 26.384V12.416C127.744 11.312 127.384 10.46 126.664 9.86C125.944 9.236 125.056 8.924 124 8.924C122.944 8.924 122.056 9.236 121.336 9.86C120.64 10.46 120.292 11.312 120.292 12.416V26.384C120.292 27.488 120.64 28.352 121.336 28.976C122.056 29.576 122.944 29.876 124 29.876ZM140.875 32C138.691 32 136.999 31.448 135.799 30.344C134.599 29.24 133.999 27.62 133.999 25.484V13.316C133.999 11.18 134.599 9.56 135.799 8.456C136.999 7.352 138.691 6.8 140.875 6.8H145.699V9.176H140.875C139.771 9.176 138.871 9.5 138.175 10.148C137.503 10.772 137.167 11.612 137.167 12.668V26.132C137.167 27.188 137.503 28.04 138.175 28.688C138.871 29.312 139.771 29.624 140.875 29.624H145.699V32H140.875ZM149.036 32V6.8H152.096V17.816L159.548 6.8H162.68L155.336 18.032L163.76 32H160.556L153.5 20.264L152.096 22.064V32H149.036Z" fill="black" fill-opacity="0.65"/>
</g>
<path d="M33.325 14.875C27.9775 14.875 23.65 19.1522 23.65 24.4375C23.65 29.7228 27.9775 34 33.325 34C38.6725 34 43 29.7228 43 24.4375C43 19.1522 38.6725 14.875 33.325 14.875ZM37.625 24.8552C37.625 25.2098 37.3314 25.5 36.9726 25.5H32.9031C32.5443 25.5 32.2507 25.2098 32.2507 24.8552V19.7705C32.2507 19.4159 32.5443 19.1257 32.9031 19.1257H33.7476C34.1064 19.1257 34.4 19.4159 34.4 19.7705V23.375H36.9726C37.3314 23.375 37.625 23.6652 37.625 24.0198V24.8552ZM33.325 12.75C33.6878 12.75 34.0453 12.7719 34.4 12.8038V9.5625C34.4 7.8625 32.895 6.375 31.175 6.375H25.8V3.1875C25.8 1.4875 24.295 0 22.575 0H11.825C10.105 0 8.6 1.4875 8.6 3.1875V6.375H3.225C1.505 6.375 0 7.8625 0 9.5625V14.875H26.5471C28.4687 13.5409 30.8035 12.75 33.325 12.75ZM21.5 6.375H12.9V4.25H21.5V6.375ZM21.9582 21.25H13.975C13.3811 21.25 12.9 20.7745 12.9 20.1875V17H0V26.5625C0 28.2625 1.505 29.75 3.225 29.75H22.8055C21.977 28.1536 21.5 26.3513 21.5 24.4375C21.5 23.3312 21.6666 22.2647 21.9582 21.25Z" fill="black" fill-opacity="0.65"/>
<defs>
<filter id="filter0_b" x="39.8743" y="2.548" width="127.886" height="33.704" filterUnits="userSpaceOnUse" color-interpolation-filters="sRGB">
<feFlood flood-opacity="0" result="BackgroundImageFix"/>
<feGaussianBlur in="BackgroundImage" stdDeviation="2"/>
<feComposite in2="SourceAlpha" operator="in" result="effect1_backgroundBlur"/>
<feBlend mode="normal" in="SourceGraphic" in2="effect1_backgroundBlur" result="shape"/>
</filter>
</defs>
</svg>
